<?xml version="1.0" encoding="UTF-8"?>
<svg xmlns="http://www.w3.org/2000/svg" viewBox="0 0 141.73 141.73">
  <defs>
    <style>.a,.b{fill:none;stroke:#1d1d1b;stroke-miterlimit:10;}.b{stroke-linecap:round;}</style>
  </defs>
  <title>Illustration_Toolkit_RZ</title>
  <path class="a" d="M105.46,41.63v4.25l4.35-4.36V32.13h-9.39l-4.36,4.36h4.26L95.82,41a2,2,0,0,1-1.41.58H83.66v7.26H96.14a5,5,0,0,0,3.51-1.45Z"></path>
  <path class="a" d="M77,59.46V55.21l-4.36,4.35V69h9.39l4.36-4.36H82.17l4.51-4.51a2,2,0,0,1,1.4-.58H98.83V52.25H86.36a5,5,0,0,0-3.52,1.45Z"></path>
  <line class="a" x1="71.17" y1="70.62" x2="64.45" y2="77.34"></line>
  <line class="a" x1="74.18" y1="73.63" x2="67.92" y2="79.88"></line>
  <line class="a" x1="77.18" y1="76.63" x2="72.84" y2="80.98"></line>
  <line class="a" x1="65.16" y1="64.61" x2="60.81" y2="68.96"></line>
  <line class="a" x1="68.16" y1="67.61" x2="61.91" y2="73.87"></line>
  <line class="b" x1="100.64" y1="88.06" x2="87.9" y2="100.79"></line>
  <line class="b" x1="103.08" y1="91.63" x2="91.37" y2="103.33"></line>
  <line class="b" x1="104.34" y1="96.38" x2="96.29" y2="104.43"></line>
  <line class="b" x1="92.32" y1="84.35" x2="84.26" y2="92.41"></line>
  <line class="b" x1="97.07" y1="85.61" x2="85.36" y2="97.32"></line>
  <line class="b" x1="115.77" y1="107.8" x2="107.71" y2="115.86"></line>
  <line class="b" x1="120.49" y1="109.1" x2="108.88" y2="120.71"></line>
  <line class="b" x1="53.73" y1="41.15" x2="41" y2="53.89"></line>
  <line class="b" x1="56.15" y1="44.76" x2="44.57" y2="56.33"></line>
  <line class="b" x1="57.44" y1="49.47" x2="49.38" y2="57.53"></line>
  <line class="b" x1="45.32" y1="37.54" x2="37.36" y2="45.5"></line>
  <line class="b" x1="50.13" y1="38.74" x2="38.56" y2="50.32"></line>
  <line class="b" x1="32.56" y1="21.04" x2="20.85" y2="32.75"></line>
  <line class="b" x1="34.05" y1="25.56" x2="25.37" y2="34.24"></line>
  <polygon class="a" points="61.69 56.69 61.26 61.42 66.95 60.9 66.53 56.25 61.69 56.69"></polygon>
  <polyline class="a" points="85.1 80.1 85.54 75.26 80.89 74.84 80.37 80.53"></polyline>
  <path class="a" d="M57,57.12l-5.68.52A12.83,12.83,0,0,1,37.34,43.7L37.86,38l.43-4.73.44-4.83a17.47,17.47,0,0,0-4.38-13.21L31,18.54a12.76,12.76,0,0,1,3,9.48l-.51,5.69-.43,4.73-.44,4.83a17.5,17.5,0,0,0,19,19l4.83-.44Z"></path>
  <path class="a" d="M126.55,107.44a17.42,17.42,0,0,0-13.21-4.37l-4.83.43-.43,4.73,5.69-.51a12.76,12.76,0,0,1,9.48,3Z"></path>
  <path class="a" d="M79.94,85.26l-.44,4.83a17.5,17.5,0,0,0,19,19l4.83-.44.43-4.73-5.69.52A12.83,12.83,0,0,1,84.15,90.51l.52-5.68"></path>
  <path class="a" d="M33.56,33.71l-5.69.52a12.8,12.8,0,0,1-9.48-3l-3.3,3.3a17.41,17.41,0,0,0,13.2,4.38l4.84-.44Z"></path>
  <path class="a" d="M61.69,56.69l.44-4.83a17.46,17.46,0,0,0-5.05-14h0a17.44,17.44,0,0,0-14-5.06l-4.83.44L37.86,38l5.68-.52A12.83,12.83,0,0,1,57.48,51.43L57,57.12l-.43,4.73-.43,4.83a17.5,17.5,0,0,0,19,19l4.83-.44.43-4.73L74.69,81A12.82,12.82,0,0,1,60.75,67.11l.51-5.69Z"></path>
  <path class="a" d="M110.59,123.4a12.79,12.79,0,0,1-3-9.48l.52-5.69.43-4.73.44-4.83a17.49,17.49,0,0,0-19-19l-4.84.44-.43,4.73,5.69-.52A12.83,12.83,0,0,1,104.3,98.25l-.52,5.68-.43,4.73-.44,4.84a17.41,17.41,0,0,0,4.38,13.2Z"></path>
  <path class="a" d="M126.56,34.25A17.49,17.49,0,0,0,107.7,15.09l.38,4.65a12.83,12.83,0,0,1,13.83,14.05Z"></path>
  <line class="a" x1="118.29" y1="23.53" x2="111.52" y2="30.2"></line>
  <line class="a" x1="120.72" y1="27.11" x2="114.5" y2="33.23"></line>
  <line class="a" x1="121.95" y1="31.89" x2="117.48" y2="36.26"></line>
  <line class="a" x1="109.96" y1="19.83" x2="105.55" y2="24.13"></line>
  <line class="a" x1="114.81" y1="21" x2="108.53" y2="27.17"></line>
</svg>
